<?xml version="1.0" encoding="UTF-8"?>
<svg id="_レイヤー_2" data-name="レイヤー 2" xmlns="http://www.w3.org/2000/svg" viewBox="0 0 23.57 23.57">
  <defs>
    <style>
      .cls-1 {
        fill: #008043;
        stroke-width: 0px;
      }
    </style>
  </defs>
  <g id="_レイヤー_1-2" data-name="レイヤー 1">
    <path class="cls-1" d="M5.07,0h13.44c1.41,0,2.66.58,3.59,1.48.9.93,1.48,2.18,1.48,3.59v13.44c0,1.38-.58,2.66-1.48,3.56-.93.93-2.18,1.51-3.59,1.51H5.07c-1.38,0-2.66-.58-3.56-1.51-.93-.9-1.51-2.18-1.51-3.56V5.07c0-1.41.58-2.66,1.51-3.59.9-.9,2.18-1.48,3.56-1.48h0ZM3.85,19.05c-.35,0-.64-.29-.64-.67,0-.35.29-.64.64-.64h5.29c.38,0,.67.29.67.64,0,.38-.29.67-.67.67H3.85ZM3.85,15.07c-.35,0-.64-.29-.64-.64,0-.38.29-.67.64-.67h5.29c.38,0,.67.29.67.67,0,.35-.29.64-.67.64H3.85ZM3.85,11.13c-.35,0-.64-.32-.64-.67s.29-.64.64-.64h14.56c.35,0,.64.29.64.64s-.29.67-.64.67H3.85ZM3.85,7.15c-.35,0-.64-.29-.64-.64,0-.38.29-.67.64-.67h14.56c.35,0,.64.29.64.67,0,.35-.29.64-.64.64H3.85ZM18.5,1.31H5.07c-1.03,0-1.96.42-2.63,1.09-.67.67-1.09,1.64-1.09,2.66v13.44c0,1.03.42,1.96,1.09,2.63.67.67,1.6,1.09,2.63,1.09h13.44c1.03,0,1.99-.42,2.66-1.09.67-.67,1.09-1.6,1.09-2.63V5.07c0-1.03-.42-1.99-1.09-2.66-.67-.67-1.64-1.09-2.66-1.09h0Z"/>
  </g>
</svg>