<?xml version="1.0" encoding="UTF-8"?>
<svg id="_レイヤー_2" data-name="レイヤー 2" xmlns="http://www.w3.org/2000/svg" viewBox="0 0 44.3 44.3">
  <defs>
    <style>
      .cls-1 {
        fill: #59c4f1;
      }

      .cls-1, .cls-2 {
        stroke-width: 0px;
      }

      .cls-2 {
        fill: #fff;
      }
    </style>
  </defs>
  <g id="_レイヤー_1-2" data-name="レイヤー 1">
    <g>
      <circle class="cls-2" cx="22.15" cy="22.15" r="22.15"/>
      <path class="cls-1" d="M23.9,29.1c-.1,0-.2-.02-.3-.07-.22-.11-.36-.34-.36-.58v-2.42h-10.55c-.31,0-.56-.25-.56-.56v-5.73c0-.31.25-.56.56-.56h10.55v-2.87c0-.25.14-.47.36-.58.22-.11.48-.09.68.05l8.49,6.13c.15.11.24.28.24.47s-.09.36-.24.47l-8.48,6.13c-.11.08-.25.12-.38.12ZM13.04,25.13h11.11v2.84l7.73-5.59-7.73-5.59v3.29h-11.11v5.05ZM32.24,22.64s0,0,0,0h0Z"/>
    </g>
  </g>
</svg>