<?xml version="1.0" encoding="UTF-8"?>
<svg id="_レイヤー_2" data-name="レイヤー 2" xmlns="http://www.w3.org/2000/svg" viewBox="0 0 665.28 79.4">
  <defs>
    <style>
      .cls-1 {
        stroke-width: 2.81px;
      }

      .cls-1, .cls-2 {
        fill: none;
        stroke: #008043;
        stroke-linecap: round;
        stroke-miterlimit: 10;
      }

      .cls-3 {
        font-family: NotoSansJP-Regular, 'Noto Sans JP';
        font-size: 26.06px;
        font-variation-settings: 'wght' 400;
      }

      .cls-4 {
        fill: #008043;
        stroke-width: 0px;
      }

      .cls-2 {
        stroke-width: 4px;
      }
    </style>
  </defs>
  <g id="_レイヤー_1-2" data-name="レイヤー 1">
    <text class="cls-3" transform="translate(88.68 52.04)"><tspan x="0" y="0">お問い合わせは以下のお電話までご連絡ください</tspan></text>
    <g>
      <path class="cls-4" d="M53.57,66.56c-9.15.91-20.85-4.05-33.12-14.09C7.68,42.01.42,31.07.02,21.65c-.23-5.32,1.65-9.96,5.6-13.81l.08-.08c3.26-2.74,6.4-4.07,9.61-4.07,1.75,0,3.38,1.03,4.15,2.62l6.06,12.58c.86,1.78.65,3.84-.54,5.38-.41.53-.84,1.06-1.28,1.59-.59.72-1.15,1.4-1.63,2.07-1,1.39-.92,3.3.2,4.54,2.53,2.82,5.87,5.75,8.24,7.72,2.38,1.91,5.91,4.62,9.18,6.54,1.44.85,3.33.55,4.49-.71.56-.6,1.11-1.28,1.7-2.01.43-.53.86-1.06,1.3-1.57,1.28-1.47,3.26-2.08,5.17-1.59l13.52,3.46c1.72.44,3.05,1.83,3.39,3.55.63,3.15-.05,6.49-2.09,10.22l-.06.1c-2.99,4.63-7.17,7.39-12.43,8.21-.37.06-.75.11-1.13.14ZM65.84,57.37h0s0,0,0,0Z"/>
      <path class="cls-1" d="M38.06,11.09c4.17.7,8.49,2.59,12.2,5.64,3.7,3.05,6.39,6.93,7.88,10.88"/>
      <path class="cls-1" d="M38.09,1.41c6.43.67,13.25,3.38,18.96,8.09,5.71,4.71,9.67,10.89,11.55,17.07"/>
    </g>
    <line class="cls-2" x1="91.32" y1="60.81" x2="663.28" y2="60.81"/>
  </g>
</svg>