<?xml version="1.0" encoding="UTF-8"?>
<svg id="_レイヤー_2" data-name="レイヤー 2" xmlns="http://www.w3.org/2000/svg" viewBox="0 0 31.27 20.45">
  <defs>
    <style>
      .cls-1 {
        fill: #008043;
        stroke-width: 0px;
      }
    </style>
  </defs>
  <g id="_レイヤー_1-2" data-name="レイヤー 1">
    <path class="cls-1" d="M.76,0h29.76c.4,0,.76.32.76.76v18.94c0,.4-.36.76-.76.76H.76c-.43,0-.76-.36-.76-.76V.76c0-.43.32-.76.76-.76h0ZM19.73,12.37c-.32-.25-.4-.72-.14-1.05.25-.32.72-.36,1.05-.14l9.13,7V2.09l-13.71,8.73c-.22.18-.54.18-.83.04L1.48,2.06v16.23l9.31-7.11c.32-.22.79-.18,1.05.14.25.32.18.79-.14,1.05l-8.66,6.56h25.28l-8.58-6.56ZM3.39,1.48l12.23,7.86L27.95,1.48H3.39Z"/>
  </g>
</svg>