<?xml version="1.0" encoding="UTF-8"?>
<svg id="_レイヤー_2" data-name="レイヤー 2" xmlns="http://www.w3.org/2000/svg" viewBox="0 0 76.1 54">
  <defs>
    <style>
      .cls-1 {
        fill: #e51f18;
      }

      .cls-1, .cls-2, .cls-3 {
        stroke-width: 0px;
      }

      .cls-2 {
        fill: #e5adcd;
      }

      .cls-3 {
        fill: #74a546;
      }
    </style>
  </defs>
  <g id="_レイヤー_1-2" data-name="レイヤー 1">
    <g>
      <g>
        <path class="cls-3" d="M60.72,46.02h-1.44V6.55h1.26c.73,0,1.33-.6,1.33-1.33V1.33c0-.73-.6-1.33-1.33-1.33h-12.77c-.73,0-1.33.6-1.33,1.33v3.88c0,.73.6,1.33,1.33,1.33h1.26v39.47h-.95c-4.16-10.63-15.52-39.66-16.73-42.71-1.87-4.42-8.42-4.34-9.89-.13-.7,1.7-13.09,33.63-16.65,42.83H1.33c-.73,0-1.33.6-1.33,1.33v5.31c0,.73.6,1.33,1.33,1.33h14.52c.73,0,1.33-.6,1.33-1.33v-5.31c0-.61-.41-1.11-.97-1.28l9.82-25.37,9.8,25.31h-.33c-.73,0-1.33.6-1.33,1.33v5.31c0,.73.6,1.33,1.33,1.33h25.2c.73,0,1.33-.6,1.33-1.33v-5.31c0-.73-.6-1.33-1.33-1.33Z"/>
        <circle class="cls-3" cx="70.45" cy="48.35" r="5.65"/>
      </g>
      <g>
        <g>
          <path class="cls-2" d="M4.26,34.71H1.91v-1.92h7.11v1.92h-2.33v6.93h-2.42v-6.93Z"/>
          <path class="cls-2" d="M10.77,39.92l-.48,1.72h-2.35l2.6-8.86h3.12l2.71,8.86h-2.52l-.5-1.72h-2.59ZM12.93,38c-.39-1.39-.7-2.63-.89-3.49h-.03c-.19.95-.51,2.22-.84,3.49h1.76Z"/>
        </g>
        <g>
          <path class="cls-1" d="M24.31,41.64h-1.62c-.06-.24-.13-.6-.15-.81-.47.66-1.27.99-2.41.99-2.52,0-3.79-2.05-3.79-4.51,0-2.72,1.47-4.7,4.22-4.7,2.49,0,3.63,1.53,3.78,2.89h-2.39c-.12-.47-.43-1.06-1.4-1.06-1.38,0-1.72,1.36-1.72,2.78s.39,2.75,1.72,2.75c1.22,0,1.43-.96,1.43-1.54v-.06h-1.51v-1.81h3.84v5.08Z"/>
          <path class="cls-1" d="M33.46,37.21c0,2.51-1.4,4.6-4.23,4.6s-4.11-2.08-4.11-4.59,1.47-4.6,4.23-4.6c2.6,0,4.1,1.94,4.1,4.59ZM27.62,37.18c0,1.63.5,2.76,1.7,2.76,1.26,0,1.67-1.2,1.67-2.71,0-1.62-.44-2.74-1.7-2.74-1.17,0-1.67,1.04-1.67,2.69Z"/>
          <path class="cls-1" d="M34.24,32.79h2.4v3.6c.54-.81,1.76-2.43,2.57-3.6h2.86l-3.03,3.63,3.13,5.23h-2.83l-1.97-3.55-.73.81v2.74h-2.4v-8.86Z"/>
          <path class="cls-1" d="M44.46,39.92l-.48,1.72h-2.35l2.6-8.86h3.12l2.71,8.86h-2.52l-.5-1.72h-2.59ZM46.62,38c-.39-1.39-.7-2.63-.89-3.49h-.03c-.19.95-.51,2.22-.84,3.49h1.76Z"/>
        </g>
      </g>
    </g>
  </g>
</svg>