<?xml version="1.0" encoding="UTF-8"?>
<svg id="_レイヤー_2" data-name="レイヤー 2" xmlns="http://www.w3.org/2000/svg" viewBox="0 0 25.97 25.22">
  <defs>
    <style>
      .cls-1 {
        fill: #009b43;
        fill-rule: evenodd;
        stroke-width: 0px;
      }
    </style>
  </defs>
  <g id="_レイヤー_1-2" data-name="レイヤー 1">
    <path class="cls-1" d="M13.48,3.15c.98-.58,2.44-.58,3.07.44.63,1.02-.1,2.27-1.05,2.81-.94.54-2.41.58-3.04-.44-.63-1.02.07-2.27,1.01-2.81h0ZM12.99,0c3.6,0,6.84,1.42,9.18,3.69,2.34,2.27,3.81,5.42,3.81,8.91s-1.47,6.64-3.81,8.91c-2.34,2.3-5.59,3.69-9.18,3.69s-6.84-1.39-9.18-3.69c-2.37-2.27-3.81-5.42-3.81-8.91S1.43,5.97,3.81,3.69C6.14,1.42,9.39,0,12.99,0h0ZM21.16,4.68c-2.09-2.03-4.99-3.29-8.17-3.29s-6.07,1.25-8.17,3.29c-2.09,2.03-3.39,4.85-3.39,7.93s1.29,5.9,3.39,7.93c2.09,2.03,4.99,3.29,8.17,3.29s6.07-1.25,8.17-3.29c2.09-2.03,3.39-4.81,3.39-7.93s-1.29-5.9-3.39-7.93h0ZM13.75,19.49l1.54-.51c.17-.07.38-.07.56.07.17.1.28.24.31.44l.07.64-.1.07c-1.43.95-3.6,1.9-5.31,2.24-.31.03-.59.07-.87-.14-.24-.2-.38-.51-.31-.81l1.78-10.3-1.08.34c-.31.1-.63-.03-.8-.34l-.35-.68.17-.07c1.5-.95,3.42-1.56,5.13-2,.28-.07.59-.03.87.17.24.2.35.51.28.81l-1.89,10.07Z"/>
  </g>
</svg>