<?xml version="1.0" encoding="UTF-8"?>
<svg id="_レイヤー_2" data-name="レイヤー 2" xmlns="http://www.w3.org/2000/svg" viewBox="0 0 57.28 57.02">
  <defs>
    <style>
      .cls-1 {
        fill: #008043;
        stroke-width: 0px;
      }
    </style>
  </defs>
  <g id="_レイヤー_1-2" data-name="レイヤー 1">
    <g>
      <path class="cls-1" d="M49.41,57.02h0l-10.47-10.29c-4.17,2.67-8.89,3.93-13.61,3.93-6.45,0-12.98-2.44-17.94-7.39C2.44,38.31,0,31.86,0,25.33S2.44,12.35,7.39,7.39h0C12.35,2.52,18.88,0,25.33,0s12.98,2.52,17.94,7.39c4.96,4.96,7.39,11.49,7.39,17.94,0,4.72-1.26,9.44-3.93,13.61l10.55,10.21h0l-2.28,2.28h0l-10.15-9.9c-.39.47-.79.94-1.18,1.34h0l-.08.08h0l-.08.08h0l-.08.08h0l-.16.16-.16.16h0l-.08.08h0l-.08.08h0l-.08.08h0c-.47.39-.87.79-1.34,1.18l10.15,9.9h0l-2.28,2.28ZM25.33,3.23c-5.66,0-11.33,2.2-15.65,6.53-4.25,4.25-6.45,9.91-6.45,15.58s2.2,11.33,6.45,15.65c4.33,4.33,9.99,6.45,15.65,6.45s11.17-2.05,15.42-6.21v-.08h0l.16-.16h.08v-.08l.16-.16h0c4.25-4.25,6.29-9.83,6.29-15.42s-2.12-11.33-6.45-15.58c-4.33-4.33-9.99-6.53-15.65-6.53h0Z"/>
      <path class="cls-1" d="M9.74,38.34l.18-.62c.75-2.51,2.13-4.83,4.01-6.7,1.74-1.74,3.75-3,6-3.76-.67-.42-1.27-.89-1.79-1.41-1.85-1.85-2.87-4.31-2.87-6.93s1.02-5.03,2.87-6.88c1.85-1.85,4.31-2.87,6.93-2.87s5.08,1.02,6.93,2.87c1.85,1.85,2.87,4.29,2.87,6.88s-1.02,5.08-2.87,6.93c-.52.52-1.11.99-1.79,1.41,2.25.76,4.27,2.03,6,3.76,1.87,1.87,3.26,4.18,4,6.68l.19.62-3.13-.04-.11-.32c-.63-1.8-1.69-3.47-3.06-4.84-2.39-2.44-5.59-3.78-9.03-3.78s-6.64,1.34-9.03,3.77c-1.38,1.38-2.44,3.06-3.07,4.87l-.11.32h-3.13ZM25.08,12.16c-1.82,0-3.53.71-4.82,1.99-1.23,1.23-1.94,2.97-1.94,4.77s.69,3.56,1.94,4.82c1.31,1.26,3.07,1.99,4.82,1.99s3.5-.73,4.77-1.99c1.29-1.24,1.99-2.95,1.99-4.82s-.72-3.55-1.98-4.76h-.01c-1.21-1.27-2.95-2-4.76-2Z"/>
    </g>
  </g>
</svg>