<?xml version="1.0" encoding="UTF-8"?>
<svg id="_レイヤー_2" data-name="レイヤー 2" xmlns="http://www.w3.org/2000/svg" viewBox="0 0 46.87 80.5">
  <defs>
    <style>
      .cls-1 {
        fill: #008043;
        stroke-width: 0px;
      }
    </style>
  </defs>
  <g id="_レイヤー_1-2" data-name="レイヤー 1">
    <g>
      <path class="cls-1" d="M30.75,74.9h-13.35c-.83,0-1.51-.67-1.51-1.51s.67-1.51,1.51-1.51h13.35c.83,0,1.51.67,1.51,1.51s-.67,1.51-1.51,1.51Z"/>
      <path class="cls-1" d="M27.49,80.5h-6.83c-.83,0-1.51-.67-1.51-1.51s.67-1.51,1.51-1.51h6.83c.83,0,1.51.67,1.51,1.51s-.67,1.51-1.51,1.51Z"/>
      <path class="cls-1" d="M30.49,69.3h-12.84c-.97,0-1.76-.79-1.76-1.76v-2.65c0-3.86-1.74-7.51-4.76-10.02-5.86-4.86-8.43-12.27-6.89-19.83,1.57-7.7,7.79-13.95,15.47-15.56,6.12-1.28,12.37.2,17.13,4.07s7.49,9.61,7.49,15.74-2.78,11.95-7.62,15.82c-2.79,2.23-4.46,5.89-4.46,9.78v2.64c0,.97-.79,1.76-1.76,1.76ZM18.91,66.29h10.34v-1.39c0-4.88,2.04-9.3,5.59-12.14,4.13-3.29,6.49-8.2,6.49-13.46s-2.33-10.1-6.38-13.4c-4.06-3.3-9.38-4.56-14.61-3.46-6.52,1.36-11.8,6.67-13.14,13.21-1.32,6.45.87,12.77,5.86,16.91,3.72,3.09,5.85,7.59,5.85,12.34v1.4Z"/>
      <path class="cls-1" d="M24.07,14.36c-.83,0-1.51-.67-1.51-1.51V1.51c0-.83.67-1.51,1.51-1.51s1.51.67,1.51,1.51v11.35c0,.83-.67,1.51-1.51,1.51Z"/>
      <path class="cls-1" d="M8.46,19.46c-.45,0-.89-.2-1.19-.58L.32,9.91c-.51-.66-.39-1.6.27-2.11.66-.51,1.6-.39,2.11.27l6.96,8.96c.51.66.39,1.6-.27,2.11-.28.21-.6.32-.92.32Z"/>
      <path class="cls-1" d="M38.41,19.46c-.32,0-.65-.1-.92-.32-.66-.51-.78-1.46-.27-2.11l6.96-8.96c.51-.66,1.46-.78,2.11-.27.66.51.78,1.46.27,2.11l-6.96,8.96c-.3.38-.74.58-1.19.58Z"/>
    </g>
  </g>
</svg>